<?xml version="1.0" encoding="UTF-8" standalone="no"?>
<!-- Created with Inkscape (http://www.inkscape.org/) -->

<svg
   version="1.1"
   id="svg55"
   width="685.98309"
   height="581.75641"
   viewBox="0 0 685.98309 581.75641"
   xmlns:xlink="http://www.w3.org/1999/xlink"
   xmlns="http://www.w3.org/2000/svg"
   xmlns:svg="http://www.w3.org/2000/svg">
  <defs
     id="defs59">
    <linearGradient
       id="linearGradient7269">
      <stop
         style="stop-color:#4a8ba8;stop-opacity:1"
         offset="0"
         id="stop7265" />
      <stop
         style="stop-color:#4a8ba8;stop-opacity:0"
         offset="1"
         id="stop7267" />
    </linearGradient>
    <linearGradient
       id="linearGradient1722">
      <stop
         style="stop-color:#000000;stop-opacity:1;"
         offset="0"
         id="stop1718" />
      <stop
         style="stop-color:#c83600;stop-opacity:1"
         offset="0.31905466"
         id="stop9795" />
      <stop
         style="stop-color:#f59000;stop-opacity:1"
         offset="0.73244148"
         id="stop13089" />
      <stop
         style="stop-color:#f59000;stop-opacity:1"
         offset="1"
         id="stop1720" />
    </linearGradient>
    <clipPath
       clipPathUnits="userSpaceOnUse"
       id="clipPath664">
      <path
         style="fill:none;stroke:#000000;stroke-width:1px;stroke-linecap:butt;stroke-linejoin:miter;stroke-opacity:1"
         d="m 722.26784,301.99653 c 15.10392,-36.14092 38.25191,-36.14092 53.26363,-23.30927 15.01172,12.83165 21.88759,38.49274 34.08957,56.38293 12.20198,17.89018 29.72837,28.00905 50.11,26.3601 20.38164,-1.64896 43.6181,-15.06453 69.46785,-25.58567 25.84975,-10.52113 54.31083,-18.14725 76.47481,-14.0268 22.164,4.12045 38.0293,19.98577 49.7189,41.94043 11.6896,21.95465 19.2035,49.99697 1.1524,76.60871 -18.0512,26.61173 -61.66587,51.79269 -117.85764,73.59662 -56.19176,21.80394 -124.95734,40.22962 -167.99364,34.4562 -43.03631,-5.77342 -60.34126,-35.74647 -65.46484,-86.87464 -5.12358,-51.12818 1.93505,-123.40769 17.03896,-159.54861 z"
         id="path666"
         clip-path="none" />
    </clipPath>
    <clipPath
       clipPathUnits="userSpaceOnUse"
       id="clipPath668">
      <path
         style="display:none;fill:none;stroke:#000000;stroke-width:1px;stroke-linecap:butt;stroke-linejoin:miter;stroke-opacity:1"
         d="m 722.26784,301.99653 c 15.10392,-36.14092 38.25191,-36.14092 53.26363,-23.30927 15.01172,12.83165 21.88759,38.49274 34.08957,56.38293 12.20198,17.89018 29.72837,28.00905 50.11,26.3601 20.38164,-1.64896 43.6181,-15.06453 69.46785,-25.58567 25.84975,-10.52113 54.31083,-18.14725 76.47481,-14.0268 22.164,4.12045 38.0293,19.98577 49.7189,41.94043 11.6896,21.95465 19.2035,49.99697 1.1524,76.60871 -18.0512,26.61173 -61.66587,51.79269 -117.85764,73.59662 -56.19176,21.80394 -124.95734,40.22962 -167.99364,34.4562 -43.03631,-5.77342 -60.34126,-35.74647 -65.46484,-86.87464 -5.12358,-51.12818 1.93505,-123.40769 17.03896,-159.54861 z"
         id="path670"
         clip-path="none" />
      <path
         id="lpe_path-effect672"
         style="fill:none;stroke:#000000;stroke-width:1px;stroke-linecap:butt;stroke-linejoin:miter;stroke-opacity:1"
         class="powerclip"
         d="M 729.96477,-34.438598 H 1092.4689 V 537.31783 H 729.96477 Z M 714.22278,265.85561 c -7.05776,72.28195 -14.11639,144.56146 -21.1763,216.84286 17.3063,29.97466 34.61125,59.94771 51.9159,89.92097 68.76796,-18.42506 137.53354,-36.85074 206.30088,-55.27816 43.61655,-25.18045 87.23124,-50.36139 130.84664,-75.54435 -7.5131,-28.04188 -15.027,-56.08421 -22.5422,-84.12865 -15.8647,-15.86467 -31.73,-31.73002 -47.597,-47.59701 -28.46066,7.62728 -56.92174,15.2534 -85.38496,22.87883 -23.23592,13.41684 -46.47238,26.83242 -69.71077,40.24753 -17.52574,-10.11807 -35.05213,-20.23694 -52.58022,-30.35721 -6.87501,-25.6606 -13.75088,-51.32169 -20.62802,-76.98481 -23.14698,10e-4 -46.29497,10e-4 -69.44395,0 z" />
    </clipPath>
    <linearGradient
       xlink:href="#linearGradient1722"
       id="linearGradient1724"
       x1="1087.0406"
       y1="-17.190098"
       x2="685.18317"
       y2="130.31493"
       gradientUnits="userSpaceOnUse" />
    <linearGradient
       xlink:href="#linearGradient7269"
       id="linearGradient6355"
       x1="810.72772"
       y1="293.86035"
       x2="740.17841"
       y2="493.97168"
       gradientUnits="userSpaceOnUse" />
    <linearGradient
       xlink:href="#linearGradient1722"
       id="linearGradient52191"
       x1="-106.34705"
       y1="566.73987"
       x2="-103.76714"
       y2="27.699299"
       gradientUnits="userSpaceOnUse"
       gradientTransform="translate(-36.596701,1.6851469)" />
  </defs>
  <g
     id="g61"
     transform="translate(198.31635,-9.0957952)">
    <path
       style="fill:url(#linearGradient1724);fill-opacity:1"
       d="m 744.59686,529.62271 c -1.50624,-1.57218 -4.1005,-6.63468 -5.76502,-11.25 -3.93063,-10.89872 -5.05668,-28.82603 -2.48703,-39.59478 2.46718,-10.33937 3.59923,-23.14081 3.60829,-40.80331 0.005,-8.80363 0.44346,-17.52426 0.97544,-19.37917 0.53198,-1.85492 3.48108,-7.52752 6.55354,-12.60579 12.57048,-20.77689 18.46829,-44.85255 15.55589,-63.5013 -2.2773,-14.58208 -11.86605,-34.4885 -21.37119,-44.36699 -6.41676,-6.66879 -6.83873,-8.72462 -2.45942,-11.98213 10.8274,-8.05388 39.9009,8.13097 50.5726,28.15313 4.96264,9.31086 6.13514,13.57549 7.74384,28.1659 1.44006,13.0609 3.90357,24.10748 7.06202,31.66673 3.86485,9.24988 9.48319,13.0533 23.37548,15.82437 9.2864,1.85234 17.53501,5.17707 22.79169,9.18653 l 3.37607,2.57506 3.16612,-3.01002 c 4.00935,-3.81168 12.89241,-9.37527 18.43636,-11.54697 6.11976,-2.39725 16.80577,-2.22863 21.00469,0.33145 7.34019,4.47531 6.24735,11.03889 -3.52554,21.17441 -5.98867,6.21087 -6.38926,6.90808 -5.71998,9.95531 0.67771,3.08555 0.35483,3.60305 -5.5348,8.8709 -5.98571,5.35379 -6.13073,5.59207 -3.37455,5.54469 2.22978,-0.0383 2.87994,0.402 2.87994,1.95049 0,1.51543 -0.84801,2.13181 -3.5,2.54402 -3.21853,0.50026 -3.02834,0.60773 2.36491,1.33631 4.82431,0.65172 19.12276,4.76502 28.13509,8.09376 1.1,0.40628 0.6392,-0.14071 -1.02399,-1.21555 -1.6632,-1.07484 -4.7007,-2.50762 -6.75,-3.18395 -2.04931,-0.67633 -3.72601,-1.61289 -3.72601,-2.08124 0,-0.46836 2.57929,-1.38701 5.73175,-2.04146 4.25606,-0.88356 6.89167,-2.2109 10.23697,-5.15556 2.47787,-2.1811 8.33608,-5.78115 13.01825,-8.0001 7.05877,-3.34526 9.99549,-5.53299 17.19113,-12.80669 5.01652,-5.07094 9.81261,-11.0111 11.36694,-14.07843 1.47887,-2.9184 4.8166,-8.7048 7.41717,-12.85865 2.60057,-4.15385 8.17299,-14.56332 12.38314,-23.13215 10.99462,-22.37705 20.16112,-31.92031 30.66025,-31.92031 4.8934,0 8.9944,3.44879 8.9944,7.56383 0,5.86419 -21.61123,50.503 -32.02873,66.15645 -5.3456,8.03234 -12.37723,15.26974 -19.05296,19.61049 -1.41993,0.92328 -6.71744,3.44634 -11.77224,5.6068 -5.0548,2.16046 -13.56804,6.81507 -18.91831,10.34358 -13.06075,8.61359 -13.93202,9.0183 -18.11491,8.41455 l -3.61285,-0.52147 4,1.83872 c 4.71036,2.16526 10.29526,2.46917 14.20295,0.77286 1.53838,-0.6678 5.70239,-3.17054 9.25335,-5.56164 3.55097,-2.39111 9.85097,-5.91834 14,-7.8383 13.63367,-6.30896 16.01348,-7.79763 23.8198,-14.9002 4.24815,-3.86517 10.19887,-9.02182 13.22387,-11.45921 3.025,-2.4374 7.8066,-6.56303 10.62566,-9.16807 12.57867,-11.62339 27.69547,-18.85839 39.40297,-18.85839 7.326,0 11.9714,3.24652 11.9714,8.36639 0,4.50966 -1.6809,6.46261 -13.2573,15.40267 -5.6335,4.35056 -19.6927,17.09923 -31.2427,28.33038 -11.55003,11.23116 -29.14411,27.01295 -39.09802,35.07065 -10.43065,8.44361 -21.44576,18.37989 -26,23.45351 -16.89784,18.82492 -21.10795,21.94541 -32.89388,24.3806 -9.87017,2.03935 -17.65981,0.81665 -46.77244,-7.34165 -16.99765,-4.76329 -31.06484,-6.33926 -42.41352,-4.75166 -15.53213,2.17284 -32.97455,8.79488 -54.43357,20.66579 -13.21559,7.31073 -16.16657,7.83014 -20.25301,3.56481 z m 139.53111,-91.89149 c 2.40595,-5.41339 9.15182,-13.59664 14.65487,-17.77747 6.71061,-5.09824 22.77304,-23.82716 26.13409,-30.47253 0.97361,-1.925 2.56229,-5.975 3.53041,-9 2.75952,-8.62242 8.39007,-18.65535 12.60816,-22.46614 5.0973,-4.6051 8.31672,-5.36943 11.74285,-2.78788 l 2.66295,2.00649 -0.34669,13.37377 -0.34669,13.37376 -4.65331,7.94714 c -2.55932,4.37093 -6.50573,9.77093 -8.76981,12 -2.26407,2.22907 -5.98602,6.85458 -8.271,10.27892 -4.53902,6.80231 -5.67657,7.66052 -11.56599,8.7258 -5.44681,0.98523 -10.41236,3.7127 -14.49268,7.96051 -1.99023,2.07193 -4.41495,3.58763 -5.73927,3.58763 -1.26121,0 -4.66043,0.89977 -7.55383,1.9995 -5.28168,2.00745 -10.21635,2.65065 -9.59406,1.2505 z m -46.95316,-86.35341 c -0.0709,-5.26402 0.61748,-8.11908 1.78379,-7.39826 0.46932,0.29006 1.60036,-2.04238 2.51342,-5.1832 6.64425,-22.85541 40.30185,-65.18189 91.53554,-115.11151 27.8975,-27.18741 39.10421,-39.40686 52.00401,-56.70362 13.5297,-18.14127 21.11763,-30.16196 32.19313,-51 15.0451,-28.306403 27.3224,-58.797139 31.3121,-77.76367 2.1801,-10.363766 1.599,-11.327619 -1.0468,-1.736328 -3.8116,13.817742 -8.3021,25.24637 -16.0425,40.829099 -6.1617,12.404586 -19.5823,35.305399 -26.6307,45.442319 -1.0599,1.52429 -1.6423,3.23219 -1.2942,3.79534 1.4775,2.39067 -16.47113,28.98479 -30.96145,45.87504 -4.98191,5.80701 -20.98793,22.71006 -35.56893,37.56233 -34.41962,35.05996 -64.547,69.78428 -82.41996,94.99587 -8.49324,11.98056 -12.99351,20.30793 -16.61792,30.75 -2.28735,6.58995 -3.97304,8.65275 -3.97304,4.86187 0,-2.847 4.50633,-17.81705 8.04481,-26.72488 1.72314,-4.33785 5.54762,-11.9899 8.49886,-17.00457 10.33189,-17.55568 36.03956,-46.86944 54.45633,-62.09506 14.29368,-11.81697 59.06529,-56.8509 72.25566,-72.67903 8.96401,-10.7566 22.00977,-28.66075 25.21714,-34.60833 1.4505,-2.68962 -1.5267,0.67347 -17.26193,19.5 -15.51461,18.56257 -39.5724,43.60647 -56.19741,58.50094 -5.2176,4.67448 -12.67667,11.53656 -16.57571,15.24906 -3.89905,3.7125 -7.54786,6.75 -8.10849,6.75 -1.07368,0 -31.04673,31.11879 -37.80488,39.25 -2.17135,2.6125 -4.19011,4.74942 -4.48614,4.74871 -0.29603,-7.1e-4 -0.53824,-3.56974 -0.53824,-7.93117 0,-7.54319 -0.23726,-8.38428 -4.8657,-17.24871 -4.61518,-8.83903 -4.91909,-9.91093 -5.90263,-20.81883 -1.02989,-11.42184 -0.0349,-23.27329 2.26654,-26.9971 1.61351,-2.61072 2.02955,-0.4205 0.96595,5.08524 -1.07414,5.56035 -0.54133,13.38637 1.08656,15.95968 1.19194,1.88418 1.33398,0.56098 1.40056,-13.04782 0.0475,-9.70326 0.28466,-10.95528 3.12579,-16.5 4.80502,-9.37741 16.03038,-25.14039 24.86508,-34.91627 7.69006,-8.5093 16.74928,-16.58373 18.60634,-16.58373 0.4779,0 -0.43218,2.1375 -2.02238,4.75 -4.15213,6.82142 -12.94853,35.80874 -14.22682,46.88252 -1.12668,9.76035 -0.24658,30.36748 1.29694,30.36748 0.49707,0 0.91999,-1.6875 0.93981,-3.75 0.0198,-2.0625 0.23521,-6.225 0.47864,-9.25 0.24342,-3.025 0.72051,-10.3375 1.06019,-16.25 0.33967,-5.9125 0.95498,-10.75 1.36734,-10.75 0.41236,0 1.05072,5.94666 1.41857,13.2148 0.36786,7.26815 1.05451,13.60049 1.52591,14.07189 0.47611,0.47611 1.0882,-5.50898 1.37704,-13.4648 0.6585,-18.13786 4.57087,-39.80253 8.72634,-48.32189 1.60963,-3.3 4.97741,-8.33068 7.48396,-11.17929 7.67927,-8.72725 28.2541,-24.32071 32.09002,-24.32071 0.35404,0 -2.66553,3.53175 -6.71017,7.84834 -9.88794,10.55279 -18.41797,26.39671 -22.28015,41.38381 -2.34505,9.09988 -4.08484,18.64146 -3.23291,17.73031 0.23782,-0.25435 2.26316,-5.96059 4.50076,-12.68053 6.93466,-20.82617 11.75815,-29.9104 22.84424,-43.02328 2.90216,-3.43274 6.68625,-9.05774 8.40909,-12.5 2.15479,-4.3053 5.82786,-8.91349 11.76876,-14.764923 15.15639,-14.92816 30.1081,-39.966974 42.70743,-71.519595 9.0631,-22.69664874 13.8233,-31.6258769 20.9825,-39.358626 7.4242,-8.019068 15.6999,-12.303793 24.9051,-12.894546 5.8552,-0.375765 7.8848,-0.06974 11.827,1.78332 2.6174,1.23031 5.7003,3.420157 6.8508,4.866325 1.8614,2.339539 2.0284,3.511299 1.5151,10.629398 -0.6277,8.7045333 0.6055,8.4929523 2.9144,-0.5 2.3056,-8.979992 4.8016,-2.365557 4.2746,11.3275502 l -0.3406,8.8491861 1.7386,-3.838369 c 0.9562,-2.111102 2.0262,-5.5258681 2.3778,-7.588368 0.6563,-3.8501872 1.7607,-4.8155752 2.7023,-2.362056 0.2929,0.76337 1.5379,7.17587 2.7666,14.25 2.4866,14.3158797 3.1536,41.6162407 1.5574,63.7508247 l -0.8573,11.888776 -4.1001,4.44804 c -2.255,2.44642 -8.7745,7.85462 -14.4878,12.018233 -8.0971,5.90087 -10.0451,7.76192 -8.8341,8.43964 0.8968,0.5019 1.2957,1.54152 0.9435,2.45932 -0.8695,2.26578 1.231,0.99321 13.1715,-7.97992 5.4881,-4.124235 10.2948,-7.303013 10.6816,-7.063963 0.7095,0.4385 -1.3292,8.533513 -5.1078,20.281373 -1.1287,3.50915 -2.0522,6.7969 -2.0522,7.30611 0,2.86333 -14.2264,33.25867 -18.583,39.70343 -2.9155,4.31294 -11.5904,11.33196 -22.2811,18.02807 -8.4087,5.26683 -30.0555,15.31788 -39.95073,18.54992 -7.1076,2.32159 -5.9463,3.09428 1.4573,0.96963 16.36853,-4.69729 38.61513,-14.54632 50.35753,-22.29432 4.125,-2.7218 7.6297,-4.60351 7.7881,-4.18158 0.2714,0.72261 -2.3333,5.51866 -10.6111,19.53847 -14.6911,24.88173 -33.9535,40.12893 -65.677,51.98697 -18.36923,6.8663 -27.88994,9.35253 -40.18452,10.49377 -6.49852,0.60322 -13.61548,1.51859 -15.81548,2.03416 -2.2,0.51556 -5.4625,0.94812 -7.25,0.96124 -5.12961,0.0377 -3.79591,1.50343 2.5,2.74757 14.31954,2.8297 20.36553,3.49165 26.82602,2.93707 3.80819,-0.32691 13.3777,-1.04408 21.26559,-1.59372 14.82317,-1.0329 20.58766,-2.44718 41.55259,-10.19468 4.3419,-1.6045 8.1222,-2.68932 8.4008,-2.41071 0.9013,0.90127 -10.6972,15.20409 -17.60663,21.71188 -16.8033,15.8265 -22.23821,18.57003 -44.18837,22.30609 l -7.5,1.27655 12,0.15787 12,0.15787 -3,2.45879 c -1.65,1.35234 -6.77114,4.37366 -11.3803,6.71404 -8.19783,4.16259 -8.58976,4.25344 -18,4.17265 -7.68235,-0.066 -11.20186,-0.62473 -17.47572,-2.77452 -7.34274,-2.51606 -18.83411,-3.78609 -20.369,-2.2512 -0.33457,0.33457 0.15752,0.60831 1.09354,0.60831 0.93601,0 2.69851,0.63049 3.91666,1.40108 4.18292,2.64609 19.78174,5.74178 28.93216,5.74178 4.83046,0 8.78266,0.34746 8.78266,0.77215 0,0.91485 -29.81989,13.11359 -32,13.09058 -0.825,-0.009 -3.3,-1.11058 -5.5,-2.4486 -3.17403,-1.93042 -4.86139,-2.3165 -8.17155,-1.8697 -2.29436,0.30968 -5.57227,0.0748 -7.28425,-0.52204 -1.71198,-0.5968 -2.87629,-0.70258 -2.58735,-0.23508 0.75271,1.21792 13.18553,6.06983 15.55367,6.06983 1.10176,0 1.98948,0.66931 1.98948,1.5 0,1.12456 -1.19888,1.5 -4.7899,1.5 -7.13121,0 -15.03684,-2.39415 -25.94522,-7.85727 -12.07594,-6.04785 -20.44466,-8.22465 -10.26488,-2.67 3.575,1.95072 9.31277,4.93491 12.75059,6.63155 11.62033,5.73486 4.28664,5.67052 -10.21364,-0.0896 -4.13848,-1.64398 -9.21481,-3.25913 -11.28073,-3.58923 -3.73913,-0.59744 -3.76873,-0.57465 -6.50622,5.00934 -3.1138,6.3516 -3.59979,13.02122 -1.27622,17.5145 0.81058,1.56749 3.36657,4.47014 5.68,6.45034 2.85183,2.44106 3.65244,3.60037 2.48638,3.60037 -2.48692,0 -9.69018,-3.79835 -12.89016,-6.79711 l -2.75,-2.57707 -0.0354,2.43709 c -0.0195,1.3404 -0.63312,3.51556 -1.36363,4.83368 -1.26948,2.29063 -1.33082,2.20221 -1.38742,-2 z m 81.77989,-62.8371 c 1.92137,-0.58272 4.84637,-1.11581 6.5,-1.18466 5.89253,-0.24531 -5.68117,-1.72373 -14.09671,-1.80071 -12.12885,-0.11094 -20.60077,0.95168 -20.00317,2.50899 0.27177,0.70822 -0.0431,1.50798 -0.6997,1.77724 -2.39533,0.98227 24.91009,-0.27289 28.29958,-1.30086 z m 14.0066,-9.91489 c 0,-1.58737 -21.91694,-2.88117 -25.50206,-1.50544 -1.32869,0.50987 -1.39581,0.81021 -0.33179,1.48469 1.75221,1.11072 25.83385,1.13007 25.83385,0.0208 z m 117.693,-254.875566 c -0.2535,-0.972968 -0.4776,-0.419032 -0.498,1.230968 -0.02,1.65 0.187,2.446064 0.461,1.769032 0.2739,-0.677033 0.2906,-2.027033 0.037,-3 z m 0.9901,-5.456532 c -0.3192,-0.797733 -0.5561,-0.560776 -0.6041,0.604167 -0.043,1.054166 0.1929,1.644791 0.5252,1.3125 0.3323,-0.332292 0.3678,-1.194792 0.079,-1.916667 z M 819.9613,323.19701 c 0,-2.51828 8.41543,-10.20082 12.57098,-11.47619 2.10502,-0.64605 4.01829,-0.98366 4.25171,-0.75025 1.14732,1.14733 -1.04404,3.40036 -3.92212,4.03249 -1.77901,0.39073 -5.40942,2.74475 -8.06757,5.23114 -3.10795,2.90712 -4.833,3.96464 -4.833,2.96281 z m -7.96378,-10.40218 c 2.94208,-4.71102 15.79811,-10.19998 24.39528,-10.4157 3.97365,-0.0997 3.99856,-0.12203 1.0685,-0.95778 -1.65,-0.47063 -5.16446,-1.13131 -7.80991,-1.46817 -5.33316,-0.6791 -5.93903,-2.60816 -1.10759,-3.52652 2.65535,-0.50472 2.50282,-0.62073 -1.69747,-1.29102 -2.53824,-0.40506 -5.45443,-1.35029 -6.48043,-2.10052 -1.69854,-1.242 -1.33035,-1.51327 4.11497,-3.03167 3.28924,-0.91718 6.43043,-1.82437 6.98043,-2.01597 0.55,-0.1916 -2.4324,-0.38389 -6.62756,-0.42731 -5.55473,-0.0575 -7.97285,-0.49501 -8.89817,-1.60996 -0.78994,-0.95182 -1.29035,-4.65115 -1.32275,-9.77874 -0.0477,-7.54236 0.27838,-8.95203 3.81235,-16.4828 3.96306,-8.44515 7.58452,-13.24544 6.1919,-8.20745 -1.19567,4.32551 -1.95291,14.67995 -1.27198,17.39299 0.84129,3.35197 6.8406,7.22499 12.61621,8.14473 l 4.5,0.71661 -4.69339,-5.02381 c -5.33643,-5.71211 -7.80661,-10.81996 -7.80661,-16.14255 0,-9.03612 6.86685,-26.24369 13.40361,-33.58797 l 3.56019,-4 -1.53387,4.5 c -1.43478,4.20929 -2.18442,13.57885 -1.16776,14.59551 0.25039,0.25038 1.0004,-2.92413 1.66669,-7.05448 0.6663,-4.13034 1.57218,-7.73265 2.01306,-8.00514 0.44089,-0.27248 1.31779,3.65797 1.94867,8.73435 0.94351,7.59184 1.94811,10.83833 5.66101,18.29414 4.72707,9.49236 5.42884,13.46001 3.97608,22.47969 -0.73338,4.5533 -7.08956,17.55327 -12.50781,25.5816 -1.66093,2.46102 -3.01987,4.91168 -3.01987,5.4459 0,1.08482 -0.70226,1.4123 -13.66237,6.37108 -5.0393,1.92813 -11.04594,3.80688 -13.34808,4.17501 -3.98312,0.63693 -4.12607,0.57381 -2.95333,-1.30405 z M 970.1459,257.42742 c 0.44253,-1.3276 6.71481,-5.0713 10.44023,-6.2314 4.96384,-1.54576 18.5862,-7.64853 24.63017,-11.03422 12.7823,-7.1604 26.9709,-19.9723 31.9711,-28.86896 2.0407,-3.63098 3.7739,-4.93497 3.7739,-2.83931 0,1.89011 -12.0175,25.41749 -14.1334,27.66975 -1.1805,1.25659 -5.8894,4.11336 -10.4642,6.34838 -4.5748,2.23502 -8.5704,4.47244 -8.8792,4.97206 -0.8269,1.33802 -10.78153,5.72807 -18.14753,8.0032 -8.71919,2.69307 -19.81012,3.83765 -19.19107,1.9805 z"
       id="path317"
       clip-path="url(#clipPath668)"
       transform="translate(-609.80211,48.534393)" />
    <path
       style="fill:url(#linearGradient6355);fill-opacity:1"
       d="m 744.59686,529.62271 c -1.50624,-1.57218 -4.1005,-6.63468 -5.76502,-11.25 -3.93063,-10.89872 -5.05668,-28.82603 -2.48703,-39.59478 2.46718,-10.33937 3.59923,-23.14081 3.60829,-40.80331 0.005,-8.80363 0.44346,-17.52426 0.97544,-19.37917 0.53198,-1.85492 3.48108,-7.52752 6.55354,-12.60579 12.57048,-20.77689 18.46829,-44.85255 15.55589,-63.5013 -2.2773,-14.58208 -11.86605,-34.4885 -21.37119,-44.36699 -6.41676,-6.66879 -6.83873,-8.72462 -2.45942,-11.98213 10.8274,-8.05388 39.9009,8.13097 50.5726,28.15313 4.96264,9.31086 6.13514,13.57549 7.74384,28.1659 1.44006,13.0609 3.90357,24.10748 7.06202,31.66673 3.86485,9.24988 9.48319,13.0533 23.37548,15.82437 9.2864,1.85234 17.53501,5.17707 22.79169,9.18653 l 3.37607,2.57506 3.16612,-3.01002 c 4.00935,-3.81168 12.89241,-9.37527 18.43636,-11.54697 6.11976,-2.39725 16.80577,-2.22863 21.00469,0.33145 7.34019,4.47531 6.24735,11.03889 -3.52554,21.17441 -5.98867,6.21087 -6.38926,6.90808 -5.71998,9.95531 0.67771,3.08555 0.35483,3.60305 -5.5348,8.8709 -5.98571,5.35379 -6.13073,5.59207 -3.37455,5.54469 2.22978,-0.0383 2.87994,0.402 2.87994,1.95049 0,1.51543 -0.84801,2.13181 -3.5,2.54402 -3.21853,0.50026 -3.02834,0.60773 2.36491,1.33631 4.82431,0.65172 19.12276,4.76502 28.13509,8.09376 1.1,0.40628 0.6392,-0.14071 -1.02399,-1.21555 -1.6632,-1.07484 -4.7007,-2.50762 -6.75,-3.18395 -2.04931,-0.67633 -3.72601,-1.61289 -3.72601,-2.08124 0,-0.46836 2.57929,-1.38701 5.73175,-2.04146 4.25606,-0.88356 6.89167,-2.2109 10.23697,-5.15556 2.47787,-2.1811 8.33608,-5.78115 13.01825,-8.0001 7.05877,-3.34526 9.99549,-5.53299 17.19113,-12.80669 5.01652,-5.07094 9.81261,-11.0111 11.36694,-14.07843 1.47887,-2.9184 4.8166,-8.7048 7.41717,-12.85865 2.60057,-4.15385 8.17299,-14.56332 12.38314,-23.13215 10.99462,-22.37705 20.16112,-31.92031 30.66025,-31.92031 4.8934,0 8.9944,3.44879 8.9944,7.56383 0,5.86419 -21.61123,50.503 -32.02873,66.15645 -5.3456,8.03234 -12.37723,15.26974 -19.05296,19.61049 -1.41993,0.92328 -6.71744,3.44634 -11.77224,5.6068 -5.0548,2.16046 -13.56804,6.81507 -18.91831,10.34358 -13.06075,8.61359 -13.93202,9.0183 -18.11491,8.41455 l -3.61285,-0.52147 4,1.83872 c 4.71036,2.16526 10.29526,2.46917 14.20295,0.77286 1.53838,-0.6678 5.70239,-3.17054 9.25335,-5.56164 3.55097,-2.39111 9.85097,-5.91834 14,-7.8383 13.63367,-6.30896 16.01348,-7.79763 23.8198,-14.9002 4.24815,-3.86517 10.19887,-9.02182 13.22387,-11.45921 3.025,-2.4374 7.8066,-6.56303 10.62566,-9.16807 12.57867,-11.62339 27.69547,-18.85839 39.40297,-18.85839 7.326,0 11.9714,3.24652 11.9714,8.36639 0,4.50966 -1.6809,6.46261 -13.2573,15.40267 -5.6335,4.35056 -19.6927,17.09923 -31.2427,28.33038 -11.55003,11.23116 -29.14411,27.01295 -39.09802,35.07065 -10.43065,8.44361 -21.44576,18.37989 -26,23.45351 -16.89784,18.82492 -21.10795,21.94541 -32.89388,24.3806 -9.87017,2.03935 -17.65981,0.81665 -46.77244,-7.34165 -16.99765,-4.76329 -31.06484,-6.33926 -42.41352,-4.75166 -15.53213,2.17284 -32.97455,8.79488 -54.43357,20.66579 -13.21559,7.31073 -16.16657,7.83014 -20.25301,3.56481 z m 139.53111,-91.89149 c 2.40595,-5.41339 9.15182,-13.59664 14.65487,-17.77747 6.71061,-5.09824 22.77304,-23.82716 26.13409,-30.47253 0.97361,-1.925 2.56229,-5.975 3.53041,-9 2.75952,-8.62242 8.39007,-18.65535 12.60816,-22.46614 5.0973,-4.6051 8.31672,-5.36943 11.74285,-2.78788 l 2.66295,2.00649 -0.34669,13.37377 -0.34669,13.37376 -4.65331,7.94714 c -2.55932,4.37093 -6.50573,9.77093 -8.76981,12 -2.26407,2.22907 -5.98602,6.85458 -8.271,10.27892 -4.53902,6.80231 -5.67657,7.66052 -11.56599,8.7258 -5.44681,0.98523 -10.41236,3.7127 -14.49268,7.96051 -1.99023,2.07193 -4.41495,3.58763 -5.73927,3.58763 -1.26121,0 -4.66043,0.89977 -7.55383,1.9995 -5.28168,2.00745 -10.21635,2.65065 -9.59406,1.2505 z m -46.95316,-86.35341 c -0.0709,-5.26402 0.61748,-8.11908 1.78379,-7.39826 0.46932,0.29006 1.60036,-2.04238 2.51342,-5.1832 6.64425,-22.85541 40.30185,-65.18189 91.53554,-115.11151 27.8975,-27.18741 39.10421,-39.40686 52.00401,-56.70362 13.5297,-18.14127 21.11763,-30.16196 32.19313,-51 15.0451,-28.306403 27.3224,-58.797139 31.3121,-77.76367 2.1801,-10.363766 1.599,-11.327619 -1.0468,-1.736328 -3.8116,13.817742 -8.3021,25.24637 -16.0425,40.829099 -6.1617,12.404586 -19.5823,35.305399 -26.6307,45.442319 -1.0599,1.52429 -1.6423,3.23219 -1.2942,3.79534 1.4775,2.39067 -16.47113,28.98479 -30.96145,45.87504 -4.98191,5.80701 -20.98793,22.71006 -35.56893,37.56233 -34.41962,35.05996 -64.547,69.78428 -82.41996,94.99587 -8.49324,11.98056 -12.99351,20.30793 -16.61792,30.75 -2.28735,6.58995 -3.97304,8.65275 -3.97304,4.86187 0,-2.847 4.50633,-17.81705 8.04481,-26.72488 1.72314,-4.33785 5.54762,-11.9899 8.49886,-17.00457 10.33189,-17.55568 36.03956,-46.86944 54.45633,-62.09506 14.29368,-11.81697 59.06529,-56.8509 72.25566,-72.67903 8.96401,-10.7566 22.00977,-28.66075 25.21714,-34.60833 1.4505,-2.68962 -1.5267,0.67347 -17.26193,19.5 -15.51461,18.56257 -39.5724,43.60647 -56.19741,58.50094 -5.2176,4.67448 -12.67667,11.53656 -16.57571,15.24906 -3.89905,3.7125 -7.54786,6.75 -8.10849,6.75 -1.07368,0 -31.04673,31.11879 -37.80488,39.25 -2.17135,2.6125 -4.19011,4.74942 -4.48614,4.74871 -0.29603,-7.1e-4 -0.53824,-3.56974 -0.53824,-7.93117 0,-7.54319 -0.23726,-8.38428 -4.8657,-17.24871 -4.61518,-8.83903 -4.91909,-9.91093 -5.90263,-20.81883 -1.02989,-11.42184 -0.0349,-23.27329 2.26654,-26.9971 1.61351,-2.61072 2.02955,-0.4205 0.96595,5.08524 -1.07414,5.56035 -0.54133,13.38637 1.08656,15.95968 1.19194,1.88418 1.33398,0.56098 1.40056,-13.04782 0.0475,-9.70326 0.28466,-10.95528 3.12579,-16.5 4.80502,-9.37741 16.03038,-25.14039 24.86508,-34.91627 7.69006,-8.5093 16.74928,-16.58373 18.60634,-16.58373 0.4779,0 -0.43218,2.1375 -2.02238,4.75 -4.15213,6.82142 -12.94853,35.80874 -14.22682,46.88252 -1.12668,9.76035 -0.24658,30.36748 1.29694,30.36748 0.49707,0 0.91999,-1.6875 0.93981,-3.75 0.0198,-2.0625 0.23521,-6.225 0.47864,-9.25 0.24342,-3.025 0.72051,-10.3375 1.06019,-16.25 0.33967,-5.9125 0.95498,-10.75 1.36734,-10.75 0.41236,0 1.05072,5.94666 1.41857,13.2148 0.36786,7.26815 1.05451,13.60049 1.52591,14.07189 0.47611,0.47611 1.0882,-5.50898 1.37704,-13.4648 0.6585,-18.13786 4.57087,-39.80253 8.72634,-48.32189 1.60963,-3.3 4.97741,-8.33068 7.48396,-11.17929 7.67927,-8.72725 28.2541,-24.32071 32.09002,-24.32071 0.35404,0 -2.66553,3.53175 -6.71017,7.84834 -9.88794,10.55279 -18.41797,26.39671 -22.28015,41.38381 -2.34505,9.09988 -4.08484,18.64146 -3.23291,17.73031 0.23782,-0.25435 2.26316,-5.96059 4.50076,-12.68053 6.93466,-20.82617 11.75815,-29.9104 22.84424,-43.02328 2.90216,-3.43274 6.68625,-9.05774 8.40909,-12.5 2.15479,-4.3053 5.82786,-8.91349 11.76876,-14.764923 15.15639,-14.92816 30.1081,-39.966974 42.70743,-71.519595 9.0631,-22.69664874 13.8233,-31.6258769 20.9825,-39.358626 7.4242,-8.019068 15.6999,-12.303793 24.9051,-12.894546 5.8552,-0.375765 7.8848,-0.06974 11.827,1.78332 2.6174,1.23031 5.7003,3.420157 6.8508,4.866325 1.8614,2.339539 2.0284,3.511299 1.5151,10.629398 -0.6277,8.7045333 0.6055,8.4929523 2.9144,-0.5 2.3056,-8.979992 4.8016,-2.365557 4.2746,11.3275502 l -0.3406,8.8491861 1.7386,-3.838369 c 0.9562,-2.111102 2.0262,-5.5258681 2.3778,-7.588368 0.6563,-3.8501872 1.7607,-4.8155752 2.7023,-2.362056 0.2929,0.76337 1.5379,7.17587 2.7666,14.25 2.4866,14.3158797 3.1536,41.6162407 1.5574,63.7508247 l -0.8573,11.888776 -4.1001,4.44804 c -2.255,2.44642 -8.7745,7.85462 -14.4878,12.018233 -8.0971,5.90087 -10.0451,7.76192 -8.8341,8.43964 0.8968,0.5019 1.2957,1.54152 0.9435,2.45932 -0.8695,2.26578 1.231,0.99321 13.1715,-7.97992 5.4881,-4.124235 10.2948,-7.303013 10.6816,-7.063963 0.7095,0.4385 -1.3292,8.533513 -5.1078,20.281373 -1.1287,3.50915 -2.0522,6.7969 -2.0522,7.30611 0,2.86333 -14.2264,33.25867 -18.583,39.70343 -2.9155,4.31294 -11.5904,11.33196 -22.2811,18.02807 -8.4087,5.26683 -30.0555,15.31788 -39.95073,18.54992 -7.1076,2.32159 -5.9463,3.09428 1.4573,0.96963 16.36853,-4.69729 38.61513,-14.54632 50.35753,-22.29432 4.125,-2.7218 7.6297,-4.60351 7.7881,-4.18158 0.2714,0.72261 -2.3333,5.51866 -10.6111,19.53847 -14.6911,24.88173 -33.9535,40.12893 -65.677,51.98697 -18.36923,6.8663 -27.88994,9.35253 -40.18452,10.49377 -6.49852,0.60322 -13.61548,1.51859 -15.81548,2.03416 -2.2,0.51556 -5.4625,0.94812 -7.25,0.96124 -5.12961,0.0377 -3.79591,1.50343 2.5,2.74757 14.31954,2.8297 20.36553,3.49165 26.82602,2.93707 3.80819,-0.32691 13.3777,-1.04408 21.26559,-1.59372 14.82317,-1.0329 20.58766,-2.44718 41.55259,-10.19468 4.3419,-1.6045 8.1222,-2.68932 8.4008,-2.41071 0.9013,0.90127 -10.6972,15.20409 -17.60663,21.71188 -16.8033,15.8265 -22.23821,18.57003 -44.18837,22.30609 l -7.5,1.27655 12,0.15787 12,0.15787 -3,2.45879 c -1.65,1.35234 -6.77114,4.37366 -11.3803,6.71404 -8.19783,4.16259 -8.58976,4.25344 -18,4.17265 -7.68235,-0.066 -11.20186,-0.62473 -17.47572,-2.77452 -7.34274,-2.51606 -18.83411,-3.78609 -20.369,-2.2512 -0.33457,0.33457 0.15752,0.60831 1.09354,0.60831 0.93601,0 2.69851,0.63049 3.91666,1.40108 4.18292,2.64609 19.78174,5.74178 28.93216,5.74178 4.83046,0 8.78266,0.34746 8.78266,0.77215 0,0.91485 -29.81989,13.11359 -32,13.09058 -0.825,-0.009 -3.3,-1.11058 -5.5,-2.4486 -3.17403,-1.93042 -4.86139,-2.3165 -8.17155,-1.8697 -2.29436,0.30968 -5.57227,0.0748 -7.28425,-0.52204 -1.71198,-0.5968 -2.87629,-0.70258 -2.58735,-0.23508 0.75271,1.21792 13.18553,6.06983 15.55367,6.06983 1.10176,0 1.98948,0.66931 1.98948,1.5 0,1.12456 -1.19888,1.5 -4.7899,1.5 -7.13121,0 -15.03684,-2.39415 -25.94522,-7.85727 -12.07594,-6.04785 -20.44466,-8.22465 -10.26488,-2.67 3.575,1.95072 9.31277,4.93491 12.75059,6.63155 11.62033,5.73486 4.28664,5.67052 -10.21364,-0.0896 -4.13848,-1.64398 -9.21481,-3.25913 -11.28073,-3.58923 -3.73913,-0.59744 -3.76873,-0.57465 -6.50622,5.00934 -3.1138,6.3516 -3.59979,13.02122 -1.27622,17.5145 0.81058,1.56749 3.36657,4.47014 5.68,6.45034 2.85183,2.44106 3.65244,3.60037 2.48638,3.60037 -2.48692,0 -9.69018,-3.79835 -12.89016,-6.79711 l -2.75,-2.57707 -0.0354,2.43709 c -0.0195,1.3404 -0.63312,3.51556 -1.36363,4.83368 -1.26948,2.29063 -1.33082,2.20221 -1.38742,-2 z m 81.77989,-62.8371 c 1.92137,-0.58272 4.84637,-1.11581 6.5,-1.18466 5.89253,-0.24531 -5.68117,-1.72373 -14.09671,-1.80071 -12.12885,-0.11094 -20.60077,0.95168 -20.00317,2.50899 0.27177,0.70822 -0.0431,1.50798 -0.6997,1.77724 -2.39533,0.98227 24.91009,-0.27289 28.29958,-1.30086 z m 14.0066,-9.91489 c 0,-1.58737 -21.91694,-2.88117 -25.50206,-1.50544 -1.32869,0.50987 -1.39581,0.81021 -0.33179,1.48469 1.75221,1.11072 25.83385,1.13007 25.83385,0.0208 z m 117.693,-254.875566 c -0.2535,-0.972968 -0.4776,-0.419032 -0.498,1.230968 -0.02,1.65 0.187,2.446064 0.461,1.769032 0.2739,-0.677033 0.2906,-2.027033 0.037,-3 z m 0.9901,-5.456532 c -0.3192,-0.797733 -0.5561,-0.560776 -0.6041,0.604167 -0.043,1.054166 0.1929,1.644791 0.5252,1.3125 0.3323,-0.332292 0.3678,-1.194792 0.079,-1.916667 z M 819.9613,323.19701 c 0,-2.51828 8.41543,-10.20082 12.57098,-11.47619 2.10502,-0.64605 4.01829,-0.98366 4.25171,-0.75025 1.14732,1.14733 -1.04404,3.40036 -3.92212,4.03249 -1.77901,0.39073 -5.40942,2.74475 -8.06757,5.23114 -3.10795,2.90712 -4.833,3.96464 -4.833,2.96281 z m -7.96378,-10.40218 c 2.94208,-4.71102 15.79811,-10.19998 24.39528,-10.4157 3.97365,-0.0997 3.99856,-0.12203 1.0685,-0.95778 -1.65,-0.47063 -5.16446,-1.13131 -7.80991,-1.46817 -5.33316,-0.6791 -5.93903,-2.60816 -1.10759,-3.52652 2.65535,-0.50472 2.50282,-0.62073 -1.69747,-1.29102 -2.53824,-0.40506 -5.45443,-1.35029 -6.48043,-2.10052 -1.69854,-1.242 -1.33035,-1.51327 4.11497,-3.03167 3.28924,-0.91718 6.43043,-1.82437 6.98043,-2.01597 0.55,-0.1916 -2.4324,-0.38389 -6.62756,-0.42731 -5.55473,-0.0575 -7.97285,-0.49501 -8.89817,-1.60996 -0.78994,-0.95182 -1.29035,-4.65115 -1.32275,-9.77874 -0.0477,-7.54236 0.27838,-8.95203 3.81235,-16.4828 3.96306,-8.44515 7.58452,-13.24544 6.1919,-8.20745 -1.19567,4.32551 -1.95291,14.67995 -1.27198,17.39299 0.84129,3.35197 6.8406,7.22499 12.61621,8.14473 l 4.5,0.71661 -4.69339,-5.02381 c -5.33643,-5.71211 -7.80661,-10.81996 -7.80661,-16.14255 0,-9.03612 6.86685,-26.24369 13.40361,-33.58797 l 3.56019,-4 -1.53387,4.5 c -1.43478,4.20929 -2.18442,13.57885 -1.16776,14.59551 0.25039,0.25038 1.0004,-2.92413 1.66669,-7.05448 0.6663,-4.13034 1.57218,-7.73265 2.01306,-8.00514 0.44089,-0.27248 1.31779,3.65797 1.94867,8.73435 0.94351,7.59184 1.94811,10.83833 5.66101,18.29414 4.72707,9.49236 5.42884,13.46001 3.97608,22.47969 -0.73338,4.5533 -7.08956,17.55327 -12.50781,25.5816 -1.66093,2.46102 -3.01987,4.91168 -3.01987,5.4459 0,1.08482 -0.70226,1.4123 -13.66237,6.37108 -5.0393,1.92813 -11.04594,3.80688 -13.34808,4.17501 -3.98312,0.63693 -4.12607,0.57381 -2.95333,-1.30405 z M 970.1459,257.42742 c 0.44253,-1.3276 6.71481,-5.0713 10.44023,-6.2314 4.96384,-1.54576 18.5862,-7.64853 24.63017,-11.03422 12.7823,-7.1604 26.9709,-19.9723 31.9711,-28.86896 2.0407,-3.63098 3.7739,-4.93497 3.7739,-2.83931 0,1.89011 -12.0175,25.41749 -14.1334,27.66975 -1.1805,1.25659 -5.8894,4.11336 -10.4642,6.34838 -4.5748,2.23502 -8.5704,4.47244 -8.8792,4.97206 -0.8269,1.33802 -10.78153,5.72807 -18.14753,8.0032 -8.71919,2.69307 -19.81012,3.83765 -19.19107,1.9805 z"
       id="path656"
       clip-path="url(#clipPath664)"
       transform="translate(-609.80211,48.534393)" />
    <text
       xml:space="preserve"
       style="font-style:normal;font-variant:normal;font-weight:normal;font-stretch:normal;font-size:120px;line-height:1.25;font-family:'Korinth Serial';-inkscape-font-specification:'Korinth Serial';fill:url(#linearGradient52191);fill-opacity:1;stroke:none"
       x="-186.99635"
       y="118.58358"
       id="text19153"><tspan
         x="-186.99635"
         y="118.58358"
         id="tspan19159"
         style="fill:url(#linearGradient52191);fill-opacity:1">O<tspan
   style="font-size:85.3333px;fill:url(#linearGradient52191)"
   id="tspan55037">penid</tspan></tspan><tspan
         x="-186.99635"
         y="268.58359"
         id="tspan24273"
         style="fill:url(#linearGradient52191);fill-opacity:1">F<tspan
   style="font-size:85.3333px;fill:url(#linearGradient52191)"
   id="tspan57931">ederation</tspan></tspan><tspan
         x="-186.99635"
         y="418.58359"
         id="tspan24275"
         style="fill:url(#linearGradient52191);fill-opacity:1">F<tspan
   style="font-size:85.3333px;fill:url(#linearGradient52191)"
   id="tspan59535">orward</tspan></tspan><tspan
         x="-186.99635"
         y="568.58356"
         id="tspan24277"
         style="fill:url(#linearGradient52191);fill-opacity:1">A<tspan
   style="font-size:85.3333px;fill:url(#linearGradient52191)"
   id="tspan62069">uth</tspan></tspan></text>
  </g>
</svg>
